<svg xmlns="http://www.w3.org/2000/svg" width="128" height="128" viewBox="0 0 128 128">
<path d="M 78.50,22.50 L 80.50,22.50 L 83.50,25.50 L 82.50,30.50 L 50.50,70.50 L 42.50,76.50 L 38.50,73.50 L 39.50,69.50 L 73.50,26.50 L 77.50,23.50 Z" fill="rgb(13,13,13)" stroke="none"/>
<path d="M 84.50,51.50 L 89.50,54.50 L 86.50,61.50 L 53.50,102.50 L 48.50,105.50 L 46.50,104.50 L 44.50,101.50 L 45.50,97.50 L 77.50,57.50 L 83.50,52.50 Z" fill="rgb(13,13,13)" stroke="none"/>
<path d="M 77.50,21.50 L 81.50,21.50 L 83.50,23.50 L 84.50,29.50 L 50.50,72.50 L 46.50,76.50 L 40.50,77.50 L 37.50,74.50 L 37.50,70.50 L 76.50,22.50 Z" fill="rgb(96,96,96)" stroke="none"/>
<path d="M 81.50,22.50 L 78.50,21.50 L 72.50,26.50 L 40.50,66.50 L 37.50,73.50 L 43.50,77.50 L 51.50,70.50 L 83.50,30.50 L 84.50,25.50 L 82.50,23.50 Z" fill="rgb(96,96,96)" stroke="none"/>
<path d="M 82.50,50.50 L 87.50,50.50 L 90.50,53.50 L 90.50,57.50 L 56.50,100.50 L 50.50,106.50 L 46.50,106.50 L 43.50,102.50 L 44.50,96.50 L 81.50,51.50 Z" fill="rgb(96,96,96)" stroke="none"/>
<path d="M 83.50,51.50 L 76.50,57.50 L 44.50,97.50 L 43.50,101.50 L 46.50,105.50 L 48.50,106.50 L 53.50,103.50 L 90.50,56.50 L 90.50,54.50 L 84.50,50.50 Z" fill="rgb(96,96,96)" stroke="none"/>
<path d="M 76.50,20.50 L 82.50,20.50 L 85.50,23.50 L 86.50,27.50 L 83.50,33.50 L 50.50,74.50 L 46.50,78.50 L 41.50,79.50 L 36.50,75.50 L 36.50,69.50 L 75.50,21.50 Z" fill="rgb(161,161,161)" stroke="none"/>
<path d="M 82.50,21.50 L 77.50,20.50 L 69.50,28.50 L 40.50,64.50 L 36.50,70.50 L 36.50,74.50 L 40.50,78.50 L 44.50,78.50 L 51.50,72.50 L 85.50,29.50 L 85.50,25.50 L 83.50,22.50 Z" fill="rgb(161,161,161)" stroke="none"/>
<path d="M 83.50,48.50 L 86.50,48.50 L 91.50,52.50 L 91.50,58.50 L 56.50,102.50 L 51.50,107.50 L 45.50,107.50 L 41.50,101.50 L 42.50,97.50 L 76.50,54.50 L 82.50,49.50 Z" fill="rgb(161,161,161)" stroke="none"/>
<path d="M 83.50,49.50 L 76.50,55.50 L 43.50,96.50 L 42.50,102.50 L 46.50,107.50 L 50.50,107.50 L 57.50,100.50 L 91.50,57.50 L 91.50,53.50 L 87.50,49.50 L 84.50,49.50 Z" fill="rgb(161,161,161)" stroke="none"/>
<path d="M 0.50,0.50 L 3.50,2.50 L 10.50,0.50 L 7.50,1.50 L 1.50,9.50 L 0.50,7.50 L 3.50,5.50 L 0.50,1.50 Z" fill="rgb(253,253,253)" stroke="none"/>
<path d="M 14.50,0.50 L 15.50,1.50 L 11.50,4.50 L 12.50,5.50 L 16.50,4.50 L 19.50,0.50 L 108.50,0.50 L 111.50,4.50 L 115.50,5.50 L 116.50,4.50 L 112.50,1.50 L 113.50,0.50 L 123.50,9.50 L 127.50,14.50 L 126.50,15.50 L 123.50,11.50 L 122.50,12.50 L 123.50,16.50 L 127.50,19.50 L 127.50,108.50 L 122.50,113.50 L 123.50,116.50 L 126.50,112.50 L 127.50,113.50 L 123.50,118.50 L 113.50,127.50 L 112.50,126.50 L 116.50,123.50 L 115.50,122.50 L 111.50,123.50 L 108.50,127.50 L 19.50,127.50 L 16.50,123.50 L 12.50,122.50 L 11.50,123.50 L 15.50,126.50 L 14.50,127.50 L 4.50,118.50 L 0.50,113.50 L 1.50,112.50 L 4.50,116.50 L 5.50,115.50 L 4.50,111.50 L 0.50,108.50 L 0.50,19.50 L 4.50,16.50 L 5.50,12.50 L 4.50,11.50 L 1.50,15.50 L 0.50,14.50 L 13.50,1.50 Z" fill="rgb(253,253,253)" stroke="none"/>
<path d="M 117.50,0.50 L 120.50,0.50 L 121.50,2.50 L 127.50,0.50 L 127.50,2.50 L 124.50,5.50 L 127.50,7.50 L 127.50,9.50 L 120.50,1.50 L 118.50,1.50 Z" fill="rgb(253,253,253)" stroke="none"/>
<path d="M 118.50,5.50 L 115.50,5.50 L 117.50,7.50 L 119.50,6.50 Z" fill="rgb(253,253,253)" stroke="none"/>
<path d="M 11.50,6.50 L 12.50,5.50 L 10.50,4.50 L 8.50,6.50 L 10.50,7.50 Z" fill="rgb(253,253,253)" stroke="none"/>
<path d="M 120.50,7.50 L 119.50,6.50 L 119.50,8.50 Z" fill="rgb(253,253,253)" stroke="none"/>
<path d="M 8.50,8.50 L 7.50,7.50 L 7.50,9.50 Z" fill="rgb(253,253,253)" stroke="none"/>
<path d="M 121.50,8.50 L 120.50,7.50 L 120.50,9.50 Z" fill="rgb(253,253,253)" stroke="none"/>
<path d="M 122.50,9.50 L 121.50,8.50 L 120.50,10.50 L 122.50,12.50 L 123.50,10.50 Z" fill="rgb(253,253,253)" stroke="none"/>
<path d="M 7.50,10.50 L 6.50,8.50 L 4.50,10.50 L 5.50,12.50 L 6.50,11.50 Z" fill="rgb(253,253,253)" stroke="none"/>
<path d="M 77.50,19.50 L 70.50,25.50 L 35.50,69.50 L 35.50,75.50 L 41.50,80.50 L 46.50,79.50 L 51.50,74.50 L 84.50,33.50 L 87.50,27.50 L 86.50,23.50 L 82.50,19.50 L 78.50,19.50 Z" fill="rgb(253,253,253)" stroke="none"/>
<path d="M 84.50,47.50 L 81.50,48.50 L 75.50,54.50 L 41.50,97.50 L 40.50,101.50 L 45.50,108.50 L 51.50,108.50 L 57.50,102.50 L 92.50,58.50 L 92.50,52.50 L 85.50,47.50 Z" fill="rgb(253,253,253)" stroke="none"/>
<path d="M 6.50,116.50 L 5.50,115.50 L 4.50,117.50 L 6.50,119.50 L 7.50,117.50 Z" fill="rgb(253,253,253)" stroke="none"/>
<path d="M 0.50,118.50 L 7.50,126.50 L 10.50,127.50 L 7.50,127.50 L 6.50,125.50 L 0.50,127.50 L 0.50,125.50 L 3.50,122.50 L 0.50,119.50 Z" fill="rgb(253,253,253)" stroke="none"/>
<path d="M 122.50,118.50 L 122.50,115.50 L 120.50,117.50 L 121.50,119.50 Z" fill="rgb(253,253,253)" stroke="none"/>
<path d="M 126.50,118.50 L 127.50,120.50 L 124.50,122.50 L 127.50,125.50 L 127.50,127.50 L 124.50,125.50 L 117.50,127.50 L 120.50,126.50 L 126.50,119.50 Z" fill="rgb(253,253,253)" stroke="none"/>
<path d="M 8.50,119.50 L 7.50,118.50 L 7.50,120.50 Z" fill="rgb(253,253,253)" stroke="none"/>
<path d="M 9.50,120.50 L 8.50,119.50 L 8.50,121.50 Z" fill="rgb(253,253,253)" stroke="none"/>
<path d="M 10.50,120.50 L 8.50,121.50 L 10.50,123.50 L 12.50,122.50 L 11.50,121.50 Z" fill="rgb(253,253,253)" stroke="none"/>
<path d="M 118.50,120.50 L 115.50,122.50 L 117.50,123.50 L 119.50,121.50 Z" fill="rgb(253,253,253)" stroke="none"/>
<path d="M 120.50,120.50 L 119.50,119.50 L 119.50,121.50 Z" fill="rgb(253,253,253)" stroke="none"/>
<path d="M 2.50,0.50 L 6.50,0.50 L 7.50,2.50 L 13.50,0.50 L 0.50,13.50 L 0.50,10.50 L 3.50,7.50 L 2.50,5.50 L 0.50,6.50 L 0.50,3.50 L 3.50,6.50 L 7.50,3.50 L 6.50,1.50 L 3.50,1.50 Z" fill="rgb(255,255,255)" stroke="none"/>
<path d="M 16.50,0.50 L 18.50,0.50 L 17.50,2.50 L 9.50,6.50 L 4.50,12.50 L 3.50,16.50 L 0.50,18.50 L 0.50,16.50 L 3.50,14.50 L 5.50,10.50 L 16.50,1.50 Z" fill="rgb(255,255,255)" stroke="none"/>
<path d="M 109.50,0.50 L 111.50,0.50 L 113.50,3.50 L 117.50,5.50 L 127.50,16.50 L 127.50,18.50 L 125.50,17.50 L 121.50,9.50 L 115.50,4.50 L 111.50,3.50 L 110.50,1.50 Z" fill="rgb(255,255,255)" stroke="none"/>
<path d="M 114.50,0.50 L 118.50,2.50 L 120.50,2.50 L 121.50,0.50 L 125.50,0.50 L 121.50,1.50 L 120.50,3.50 L 123.50,6.50 L 127.50,3.50 L 127.50,6.50 L 124.50,6.50 L 127.50,10.50 L 127.50,13.50 L 115.50,1.50 Z" fill="rgb(255,255,255)" stroke="none"/>
<path d="M 0.50,109.50 L 3.50,111.50 L 6.50,118.50 L 12.50,123.50 L 16.50,124.50 L 18.50,127.50 L 16.50,127.50 L 14.50,124.50 L 10.50,122.50 L 0.50,110.50 Z" fill="rgb(255,255,255)" stroke="none"/>
<path d="M 127.50,109.50 L 127.50,111.50 L 124.50,113.50 L 122.50,117.50 L 111.50,127.50 L 109.50,127.50 L 110.50,125.50 L 118.50,121.50 L 123.50,115.50 L 124.50,111.50 L 126.50,110.50 Z" fill="rgb(255,255,255)" stroke="none"/>
<path d="M 0.50,114.50 L 13.50,127.50 L 9.50,125.50 L 7.50,125.50 L 6.50,127.50 L 2.50,127.50 L 6.50,126.50 L 7.50,124.50 L 4.50,121.50 L 0.50,124.50 L 0.50,121.50 L 3.50,121.50 L 0.50,115.50 Z" fill="rgb(255,255,255)" stroke="none"/>
<path d="M 127.50,114.50 L 127.50,117.50 L 124.50,120.50 L 125.50,122.50 L 127.50,121.50 L 127.50,124.50 L 124.50,121.50 L 120.50,124.50 L 121.50,126.50 L 125.50,127.50 L 121.50,127.50 L 120.50,125.50 L 114.50,127.50 L 126.50,115.50 Z" fill="rgb(255,255,255)" stroke="none"/>
</svg>
